<svg width="516" height="512" viewBox="0 0 516 512" fill="none" xmlns="http://www.w3.org/2000/svg">
<path d="M0 63.6684C0 28.5053 28.4496 0 63.544 0H447.456C482.55 0 511 28.5053 511 63.6684V448.332C511 483.495 482.55 512 447.456 512H63.544C28.4496 512 0 483.495 0 448.332V63.6684Z" fill="url(#paint0_linear)"/>
<path opacity="0.15" d="M412.229 376.693C410.873 370.328 407.773 364.469 403.28 359.774C398.786 355.079 393.076 351.734 386.791 350.116V179.886C392.751 178.351 398.201 175.261 402.586 170.931C406.971 166.6 410.136 161.183 411.76 155.228C413.384 149.274 413.408 142.994 411.831 137.027C410.254 131.06 407.132 125.618 402.781 121.253C398.43 116.888 393.005 113.755 387.057 112.173C381.109 110.591 374.85 110.616 368.915 112.246C362.98 113.875 357.58 117.05 353.264 121.45C348.947 125.85 345.868 131.317 344.338 137.296H174.66C173.116 131.258 169.992 125.743 165.612 121.322C161.231 116.901 155.753 113.734 149.743 112.149C143.733 110.565 137.411 110.62 131.43 112.308C125.448 113.997 120.025 117.258 115.721 121.754C111.417 126.251 108.389 131.819 106.949 137.883C105.51 143.947 105.711 150.287 107.533 156.247C109.354 162.207 112.73 167.571 117.31 171.783C121.891 175.996 127.51 178.904 133.586 180.207V349.798C127.451 351.113 121.783 354.064 117.18 358.34C112.577 362.616 109.209 368.059 107.431 374.094C105.652 380.13 105.53 386.535 107.076 392.635C108.622 398.735 111.779 404.303 116.215 408.753C120.651 413.203 126.202 416.371 132.282 417.921C138.362 419.472 144.746 419.349 150.762 417.564C156.778 415.78 162.203 412.4 166.465 407.782C170.727 403.163 173.668 397.477 174.979 391.322H344.02C344.977 395.815 346.807 400.075 349.406 403.859C352.004 407.643 355.32 410.876 359.164 413.374C363.008 415.872 367.305 417.586 371.809 418.418C376.313 419.25 380.937 419.184 385.415 418.223C389.894 417.263 394.14 415.426 397.912 412.819C401.683 410.212 404.906 406.886 407.396 403.029C409.886 399.173 411.594 394.862 412.423 390.343C413.253 385.824 413.187 381.186 412.229 376.693V376.693ZM359.797 137.296C361.933 132.822 365.638 129.294 370.203 127.387C374.768 125.48 379.874 125.328 384.543 126.96C389.213 128.592 393.12 131.894 395.517 136.233C397.913 140.573 398.632 145.646 397.534 150.484C396.437 155.321 393.602 159.583 389.57 162.456C385.537 165.328 380.592 166.608 375.678 166.052C370.764 165.497 366.226 163.144 362.933 159.443C359.639 155.742 357.821 150.954 357.825 145.993C357.834 142.983 358.507 140.013 359.797 137.296ZM120.576 145.993C120.561 141.626 121.941 137.37 124.513 133.847C127.085 130.325 130.714 127.721 134.869 126.419C139.023 125.116 143.484 125.183 147.597 126.61C151.711 128.036 155.261 130.747 157.727 134.345C160.193 137.943 161.445 142.239 161.3 146.603C161.155 150.968 159.62 155.17 156.92 158.595C154.221 162.021 150.499 164.488 146.3 165.637C142.101 166.785 137.645 166.553 133.587 164.976C129.767 163.492 126.482 160.886 124.161 157.499C121.84 154.113 120.59 150.102 120.576 145.993ZM159.8 391.323C157.985 395.974 154.505 399.778 150.041 401.991C145.578 404.203 140.452 404.665 135.667 403.286C130.882 401.906 126.782 398.785 124.17 394.532C121.559 390.28 120.623 385.203 121.546 380.294C122.469 375.386 125.185 371 129.162 367.995C133.139 364.99 138.091 363.582 143.048 364.047C148.005 364.512 152.61 366.817 155.963 370.509C159.316 374.202 161.174 379.016 161.175 384.011C161.167 386.512 160.7 388.991 159.799 391.323H159.8ZM344.021 376.7H174.979C173.561 370.104 170.277 364.057 165.521 359.286C160.765 354.515 154.738 351.22 148.163 349.798V180.207C154.971 178.734 161.186 175.254 166.01 170.215C170.834 165.175 174.048 158.805 175.24 151.92H343.759C344.992 159.041 348.387 165.605 353.481 170.715C358.575 175.825 365.118 179.232 372.215 180.469V349.535C365.353 350.73 359.003 353.954 353.979 358.794C348.956 363.634 345.488 369.869 344.02 376.7H344.021ZM378.124 404.531C374.094 404.546 370.15 403.362 366.791 401.128C363.432 398.895 360.808 395.712 359.252 391.983C357.696 388.253 357.277 384.145 358.048 380.176C358.819 376.208 360.746 372.558 363.585 369.689C366.424 366.819 370.047 364.858 373.997 364.054C377.946 363.251 382.044 363.64 385.773 365.173C389.503 366.706 392.695 369.314 394.946 372.667C397.198 376.021 398.408 379.968 398.423 384.011C398.433 386.696 397.916 389.356 396.901 391.84C395.887 394.324 394.394 396.584 392.509 398.489C390.624 400.395 388.384 401.909 385.915 402.945C383.447 403.982 380.799 404.521 378.123 404.531H378.124Z" fill="black"/>
<path d="M133.5 164C148.688 164 161 151.464 161 136C161 120.536 148.688 108 133.5 108C118.312 108 106 120.536 106 136C106 151.464 118.312 164 133.5 164Z" fill="url(#paint1_linear)"/>
<path d="M366.5 161C381.688 161 394 148.688 394 133.5C394 118.312 381.688 106 366.5 106C351.312 106 339 118.312 339 133.5C339 148.688 351.312 161 366.5 161Z" fill="url(#paint2_linear)"/>
<path d="M133.5 398C148.688 398 161 385.912 161 371C161 356.088 148.688 344 133.5 344C118.312 344 106 356.088 106 371C106 385.912 118.312 398 133.5 398Z" fill="url(#paint3_linear)"/>
<path d="M366.5 396C381.688 396 394 383.688 394 368.5C394 353.312 381.688 341 366.5 341C351.312 341 339 353.312 339 368.5C339 383.688 351.312 396 366.5 396Z" fill="url(#paint4_linear)"/>
<path d="M404.227 366.08C402.88 359.777 399.801 353.975 395.336 349.326C390.872 344.677 385.199 341.366 378.956 339.764V171.209C384.877 169.69 390.291 166.631 394.648 162.343C399.004 158.055 402.149 152.69 403.763 146.794C405.376 140.898 405.401 134.68 403.834 128.772C402.267 122.863 399.165 117.474 394.842 113.152C390.519 108.83 385.13 105.728 379.221 104.161C373.312 102.595 367.093 102.62 361.197 104.233C355.3 105.847 349.935 108.991 345.647 113.348C341.359 117.704 338.3 123.118 336.78 129.039H168.212C166.678 123.06 163.575 117.599 159.223 113.221C154.871 108.843 149.428 105.707 143.458 104.138C137.487 102.569 131.206 102.623 125.264 104.295C119.321 105.967 113.933 109.196 109.657 113.649C105.382 118.101 102.373 123.615 100.943 129.619C99.5125 135.624 99.7127 141.902 101.522 147.803C103.332 153.705 106.686 159.016 111.237 163.186C115.787 167.357 121.37 170.237 127.407 171.527V339.447C121.312 340.75 115.682 343.672 111.109 347.906C106.536 352.14 103.19 357.529 101.423 363.506C99.6564 369.482 99.5347 375.824 101.071 381.863C102.607 387.903 105.743 393.417 110.15 397.823C114.558 402.229 120.072 405.366 126.112 406.901C132.152 408.436 138.495 408.314 144.471 406.547C150.448 404.781 155.837 401.435 160.071 396.862C164.306 392.289 167.228 386.659 168.53 380.564H336.463C337.411 385.017 339.227 389.24 341.807 392.991C344.387 396.741 347.682 399.947 351.502 402.424C355.322 404.9 359.593 406.6 364.07 407.426C368.547 408.251 373.144 408.186 377.596 407.234C382.048 406.283 386.269 404.463 390.018 401.879C393.766 399.295 396.969 395.998 399.442 392.176C401.915 388.353 403.611 384.081 404.432 379.604C405.253 375.126 405.183 370.531 404.227 366.08ZM352.137 129.039C354.259 124.611 357.937 121.12 362.47 119.234C367.003 117.347 372.072 117.197 376.709 118.812C381.346 120.427 385.224 123.694 387.604 127.989C389.983 132.283 390.697 137.304 389.607 142.091C388.518 146.878 385.703 151.096 381.7 153.938C377.696 156.781 372.786 158.048 367.907 157.499C363.028 156.949 358.522 154.621 355.252 150.959C351.981 147.297 350.175 142.559 350.178 137.65C350.187 134.67 350.857 131.729 352.137 129.039ZM114.482 137.65C114.467 133.326 115.838 129.111 118.393 125.622C120.949 122.134 124.554 119.556 128.682 118.266C132.809 116.976 137.241 117.043 141.328 118.455C145.415 119.868 148.942 122.552 151.392 126.115C153.842 129.678 155.086 133.932 154.942 138.254C154.798 142.575 153.273 146.737 150.591 150.129C147.909 153.52 144.211 155.964 140.039 157.101C135.866 158.238 131.44 158.008 127.407 156.446C123.612 154.976 120.349 152.396 118.043 149.043C115.737 145.69 114.496 141.719 114.482 137.65ZM153.448 380.564C151.644 385.173 148.185 388.943 143.748 391.136C139.31 393.329 134.214 393.787 129.457 392.42C124.7 391.054 120.624 387.961 118.027 383.748C115.43 379.534 114.5 374.503 115.418 369.64C116.336 364.776 119.036 360.431 122.99 357.453C126.943 354.476 131.866 353.081 136.794 353.542C141.722 354.003 146.301 356.286 149.634 359.945C152.967 363.605 154.814 368.376 154.814 373.325C154.806 375.801 154.343 378.255 153.448 380.564ZM336.463 366.084H168.529C167.12 359.553 163.857 353.567 159.133 348.842C154.408 344.118 148.421 340.856 141.889 339.447V171.527C148.653 170.068 154.826 166.623 159.619 161.633C164.411 156.643 167.604 150.335 168.788 143.519H336.204C337.429 150.569 340.802 157.069 345.863 162.129C350.923 167.189 357.423 170.562 364.474 171.787V339.188C357.657 340.372 351.349 343.564 346.359 348.356C341.368 353.148 337.923 359.321 336.463 366.084ZM370.345 393.646C366.341 393.661 362.423 392.49 359.085 390.278C355.747 388.067 353.14 384.915 351.593 381.223C350.047 377.53 349.63 373.461 350.396 369.531C351.162 365.602 353.076 361.987 355.896 359.145C358.716 356.303 362.316 354.361 366.24 353.565C370.164 352.769 374.236 353.154 377.941 354.672C381.646 356.189 384.818 358.771 387.056 362.092C389.293 365.412 390.496 369.321 390.511 373.325C390.532 378.693 388.419 383.85 384.637 387.661C380.855 391.472 375.715 393.625 370.345 393.646Z" fill="white"/>
<path d="M339 246.4H321.413C319.525 231.258 312.711 217.182 302.044 206.39C291.378 195.599 277.466 188.704 262.5 186.794V169H245.5V186.794C230.534 188.704 216.622 195.599 205.956 206.39C195.289 217.182 188.475 231.258 186.587 246.4H169V263.6H186.587C188.475 278.742 195.289 292.818 205.956 303.61C216.622 314.401 230.534 321.296 245.5 323.206V341H262.5V323.206C277.466 321.296 291.378 314.401 302.044 303.61C312.711 292.818 319.525 278.742 321.413 263.6H339L339 246.4ZM254 306.6C243.913 306.6 234.053 303.574 225.666 297.904C217.279 292.234 210.742 284.175 206.882 274.746C203.022 265.318 202.012 254.943 203.98 244.933C205.948 234.924 210.805 225.73 217.938 218.513C225.07 211.297 234.157 206.382 244.05 204.391C253.943 202.4 264.198 203.422 273.517 207.328C282.836 211.233 290.801 217.847 296.405 226.333C302.009 234.818 305 244.795 305 255C304.985 268.68 299.607 281.796 290.046 291.47C280.485 301.143 267.521 306.585 254 306.6V306.6Z" fill="white"/>
<defs>
<linearGradient id="paint0_linear" x1="137.179" y1="639.065" x2="616.436" y2="94.0503" gradientUnits="userSpaceOnUse">
<stop stop-color="#597DFD"/>
<stop offset="1" stop-color="#00F0FF"/>
</linearGradient>
<linearGradient id="paint1_linear" x1="120.765" y1="177.898" x2="173.285" y2="119.124" gradientUnits="userSpaceOnUse">
<stop stop-color="#597DFD"/>
<stop offset="1" stop-color="#00F0FF"/>
</linearGradient>
<linearGradient id="paint2_linear" x1="353.765" y1="174.65" x2="405.235" y2="116.003" gradientUnits="userSpaceOnUse">
<stop stop-color="#597DFD"/>
<stop offset="1" stop-color="#00F0FF"/>
</linearGradient>
<linearGradient id="paint3_linear" x1="120.765" y1="411.401" x2="171.17" y2="352.904" gradientUnits="userSpaceOnUse">
<stop stop-color="#597DFD"/>
<stop offset="1" stop-color="#00F0FF"/>
</linearGradient>
<linearGradient id="paint4_linear" x1="353.765" y1="409.65" x2="405.235" y2="351.003" gradientUnits="userSpaceOnUse">
<stop stop-color="#597DFD"/>
<stop offset="1" stop-color="#00F0FF"/>
</linearGradient>
</defs>
</svg>
